<?xml version="1.0" encoding="UTF-8" standalone="no"?>
<!-- Created with Inkscape (http://www.inkscape.org/) -->

<svg
   width="210mm"
   height="297mm"
   viewBox="0 0 210 297"
   version="1.1"
   id="svg5"
   xml:space="preserve"
   inkscape:version="1.2.2 (732a01da63, 2022-12-09)"
   sodipodi:docname="Backing.svg"
   xmlns:inkscape="http://www.inkscape.org/namespaces/inkscape"
   xmlns:sodipodi="http://sodipodi.sourceforge.net/DTD/sodipodi-0.dtd"
   xmlns="http://www.w3.org/2000/svg"
   xmlns:svg="http://www.w3.org/2000/svg"><sodipodi:namedview
     id="namedview7"
     pagecolor="#ffffff"
     bordercolor="#000000"
     borderopacity="0.25"
     inkscape:showpageshadow="2"
     inkscape:pageopacity="0.0"
     inkscape:pagecheckerboard="0"
     inkscape:deskcolor="#d1d1d1"
     inkscape:document-units="mm"
     showgrid="false"
     inkscape:zoom="0.71624579"
     inkscape:cx="372.07898"
     inkscape:cy="499.13033"
     inkscape:window-width="1920"
     inkscape:window-height="991"
     inkscape:window-x="-9"
     inkscape:window-y="-9"
     inkscape:window-maximized="1"
     inkscape:current-layer="g3341"><inkscape:page
       x="0"
       y="0"
       width="210"
       height="297"
       id="page3519" /><inkscape:page
       x="220"
       y="0"
       width="215.89999"
       height="279.40002"
       id="page3521" /></sodipodi:namedview><defs
     id="defs2"><clipPath
       clipPathUnits="userSpaceOnUse"
       id="clipPath3505"><path
         d="m 24494.1,-444.64001 v -382.39997 h 1252.099 v 382.39997 z"
         clip-rule="evenodd"
         id="path3503" /></clipPath></defs><g
     inkscape:label="Layer 1"
     inkscape:groupmode="layer"
     id="layer1" /><g
     id="g3281"
     transform="matrix(0.26458333,0,0,0.26458334,-44.492532,-52.82462)"
     style="fill:none;stroke:#ff0000;stroke-opacity:1;vector-effect:non-scaling-stroke;-inkscape-stroke:hairline;stroke-width:0.99999999;stroke-dasharray:none"><path
       d="M 666.88,591.20001 V 1007.36"
       style="fill:none;stroke:#ff0000;stroke-width:0.99999999;stroke-linecap:round;stroke-linejoin:round;stroke-miterlimit:10;stroke-dasharray:none;stroke-opacity:1;vector-effect:non-scaling-stroke;-inkscape-stroke:hairline"
       id="path3283" /></g><g
     id="g3285"
     transform="matrix(0.26458333,0,0,0.26458334,128.14279,217.51606)"
     style="fill:none;stroke:#ff0000;stroke-opacity:1;vector-effect:non-scaling-stroke;-inkscape-stroke:hairline;stroke-width:0.99999999;stroke-dasharray:none"><path
       d="m 0,0 2.24,-0.16 2.24,-0.48 2.08,-0.96 1.92,-1.12 1.76,-1.44 1.44,-1.76 1.12,-1.92 0.96,-2.08 0.48,-2.24 0.16,-2.24"
       style="fill:none;stroke:#ff0000;stroke-width:0.99999999;stroke-linecap:round;stroke-linejoin:round;stroke-miterlimit:10;stroke-dasharray:none;stroke-opacity:1;vector-effect:non-scaling-stroke;-inkscape-stroke:hairline"
       id="path3287" /></g><g
     id="g3289"
     transform="matrix(0.26458333,0,0,0.26458334,-44.492532,-52.82462)"
     style="fill:none;stroke:#ff0000;stroke-opacity:1;vector-effect:non-scaling-stroke;-inkscape-stroke:hairline;stroke-width:0.99999999;stroke-dasharray:none"><path
       d="M 652.47998,1021.76 H 484.32001"
       style="fill:none;stroke:#ff0000;stroke-width:0.99999999;stroke-linecap:round;stroke-linejoin:round;stroke-miterlimit:10;stroke-dasharray:none;stroke-opacity:1;vector-effect:non-scaling-stroke;-inkscape-stroke:hairline"
       id="path3291" /></g><g
     id="g3293"
     transform="matrix(0.26458333,0,0,0.26458334,79.840468,213.70606)"
     style="fill:none;stroke:#ff0000;stroke-opacity:1;vector-effect:non-scaling-stroke;-inkscape-stroke:hairline;stroke-width:0.99999999;stroke-dasharray:none"><path
       d="m 0,0 0.16,2.24 0.48,2.24 0.96,2.08 1.12,1.92 1.44,1.76 1.76,1.44 1.92,1.12 2.08,0.96 2.24,0.48 2.24,0.16"
       style="fill:none;stroke:#ff0000;stroke-width:0.99999999;stroke-linecap:round;stroke-linejoin:round;stroke-miterlimit:10;stroke-dasharray:none;stroke-opacity:1;vector-effect:non-scaling-stroke;-inkscape-stroke:hairline"
       id="path3295" /></g><g
     id="g3297"
     transform="matrix(0.26458333,0,0,0.26458334,-44.492532,-52.82462)"
     style="fill:none;stroke:#ff0000;stroke-opacity:1;vector-effect:non-scaling-stroke;-inkscape-stroke:hairline;stroke-width:0.99999999;stroke-dasharray:none"><path
       d="M 469.92001,1007.36 V 407.20001"
       style="fill:none;stroke:#ff0000;stroke-width:0.99999999;stroke-linecap:round;stroke-linejoin:round;stroke-miterlimit:10;stroke-dasharray:none;stroke-opacity:1;vector-effect:non-scaling-stroke;-inkscape-stroke:hairline"
       id="path3299" /></g><g
     id="g3301"
     transform="matrix(0.26458333,0,0,0.26458334,83.650468,51.103713)"
     style="fill:none;stroke:#ff0000;stroke-opacity:1;vector-effect:non-scaling-stroke;-inkscape-stroke:hairline;stroke-width:0.99999999;stroke-dasharray:none"><path
       d="m 0,0 -2.24,0.16 -2.24,0.48 -2.08,0.96 -1.92,1.12 -1.76,1.44 -1.44,1.76 -1.12,1.92 -0.96,2.08 -0.48,2.24 -0.16,2.24"
       style="fill:none;stroke:#ff0000;stroke-width:0.99999999;stroke-linecap:round;stroke-linejoin:round;stroke-miterlimit:10;stroke-dasharray:none;stroke-opacity:1;vector-effect:non-scaling-stroke;-inkscape-stroke:hairline"
       id="path3303" /></g><g
     id="g3305"
     transform="matrix(0.26458333,0,0,0.26458334,-44.492532,-52.82462)"
     style="fill:none;stroke:#ff0000;stroke-opacity:1;vector-effect:non-scaling-stroke;-inkscape-stroke:hairline;stroke-width:0.99999999;stroke-dasharray:none"><path
       d="M 484.32001,392.79999 H 652.47998"
       style="fill:none;stroke:#ff0000;stroke-width:0.99999999;stroke-linecap:round;stroke-linejoin:round;stroke-miterlimit:10;stroke-dasharray:none;stroke-opacity:1;vector-effect:non-scaling-stroke;-inkscape-stroke:hairline"
       id="path3307" /></g><g
     id="g3309"
     transform="matrix(0.26458333,0,0,0.26458334,131.9528,54.913723)"
     style="fill:none;stroke:#ff0000;stroke-opacity:1;vector-effect:non-scaling-stroke;-inkscape-stroke:hairline;stroke-width:0.99999999;stroke-dasharray:none"><path
       d="m 0,0 -0.16,-2.24 -0.48,-2.24 -0.96,-2.08 -1.12,-1.92 -1.44,-1.76 -1.76,-1.44 -1.92,-1.12 -2.08,-0.96 -2.24,-0.48 -2.24,-0.16"
       style="fill:none;stroke:#ff0000;stroke-width:0.99999999;stroke-linecap:round;stroke-linejoin:round;stroke-miterlimit:10;stroke-dasharray:none;stroke-opacity:1;vector-effect:non-scaling-stroke;-inkscape-stroke:hairline"
       id="path3311" /></g><path
     style="vector-effect:non-scaling-stroke;fill:none;stroke:#ff0000;stroke-width:0.344292;stroke-linecap:round;stroke-linejoin:round;stroke-miterlimit:10;stroke-dasharray:none;stroke-opacity:1;-inkscape-stroke:hairline"
     d="M 131.9528,54.894287 V 103.70991"
     id="path3315" /><g
     id="g3341"
     transform="matrix(0.26458333,0,0,0.26458334,128.14279,214.97606)"
     style="fill:none;fill-opacity:1;stroke:#ff0000;stroke-opacity:1;vector-effect:non-scaling-stroke;-inkscape-stroke:hairline;stroke-width:0.99999999;stroke-dasharray:none"><path
       d="M 0,0 1.28,-0.16 2.4,-0.64 3.36,-1.44 4.16,-2.4 4.64,-3.52 4.8,-4.8 4.64,-6.08 4.16,-7.2 3.36,-8.16 2.4,-8.96 1.28,-9.44 0,-9.6 l -1.28,0.16 -1.12,0.48 -0.96,0.8 -0.8,0.96 -0.48,1.12 -0.16,1.28 0.16,1.28 0.48,1.12 0.8,0.96 0.96,0.8 1.12,0.48 z"
       style="fill:none;fill-opacity:1;stroke:#ff0000;stroke-width:0.99999999;stroke-linecap:round;stroke-linejoin:round;stroke-miterlimit:10;stroke-dasharray:none;stroke-opacity:1;vector-effect:non-scaling-stroke;-inkscape-stroke:hairline"
       id="path3343" /></g><g
     id="g3345"
     transform="matrix(0.26458333,0,0,0.26458334,83.650468,56.183713)"
     style="fill:none;stroke:#ff0000;stroke-opacity:1;vector-effect:non-scaling-stroke;-inkscape-stroke:hairline;stroke-width:0.99999999;stroke-dasharray:none"><path
       d="M 0,0 1.28,-0.16 2.4,-0.64 3.36,-1.44 4.16,-2.4 4.64,-3.52 4.8,-4.8 4.64,-6.08 4.16,-7.2 3.36,-8.16 2.4,-8.96 1.28,-9.44 0,-9.6 l -1.28,0.16 -1.12,0.48 -0.96,0.8 -0.8,0.96 -0.48,1.12 -0.16,1.28 0.16,1.28 0.48,1.12 0.8,0.96 0.96,0.8 1.12,0.48 z"
       style="fill:none;stroke:#ff0000;stroke-width:0.99999999;stroke-linecap:round;stroke-linejoin:round;stroke-miterlimit:10;stroke-dasharray:none;stroke-opacity:1;vector-effect:non-scaling-stroke;-inkscape-stroke:hairline"
       id="path3347" /></g><g
     id="g3349"
     transform="matrix(0.26458333,0,0,0.26458334,83.650468,214.97606)"
     style="fill:none;stroke:#ff0000;stroke-opacity:1;vector-effect:non-scaling-stroke;-inkscape-stroke:hairline;stroke-width:0.99999999;stroke-dasharray:none"><path
       d="M 0,0 1.28,-0.16 2.4,-0.64 3.36,-1.44 4.16,-2.4 4.64,-3.52 4.8,-4.8 4.64,-6.08 4.16,-7.2 3.36,-8.16 2.4,-8.96 1.28,-9.44 0,-9.6 l -1.28,0.16 -1.12,0.48 -0.96,0.8 -0.8,0.96 -0.48,1.12 -0.16,1.28 0.16,1.28 0.48,1.12 0.8,0.96 0.96,0.8 1.12,0.48 z"
       style="fill:none;stroke:#ff0000;stroke-width:0.99999999;stroke-linecap:round;stroke-linejoin:round;stroke-miterlimit:10;stroke-dasharray:none;stroke-opacity:1;vector-effect:non-scaling-stroke;-inkscape-stroke:hairline"
       id="path3351" /></g><g
     id="g3353"
     transform="matrix(0.26458333,0,0,0.26458334,128.14279,56.183713)"
     style="fill:none;stroke:#ff0000;stroke-opacity:1;vector-effect:non-scaling-stroke;-inkscape-stroke:hairline;stroke-width:0.99999999;stroke-dasharray:none"><path
       d="M 0,0 1.28,-0.16 2.4,-0.64 3.36,-1.44 4.16,-2.4 4.64,-3.52 4.8,-4.8 4.64,-6.08 4.16,-7.2 3.36,-8.16 2.4,-8.96 1.28,-9.44 0,-9.6 l -1.28,0.16 -1.12,0.48 -0.96,0.8 -0.8,0.96 -0.48,1.12 -0.16,1.28 0.16,1.28 0.48,1.12 0.8,0.96 0.96,0.8 1.12,0.48 z"
       style="fill:none;stroke:#ff0000;stroke-width:0.99999999;stroke-linecap:round;stroke-linejoin:round;stroke-miterlimit:10;stroke-dasharray:none;stroke-opacity:1;vector-effect:non-scaling-stroke;-inkscape-stroke:hairline"
       id="path3355" /></g></svg>
